Coordinates
version=1
nRows=10
nColumns=40
inDegrees=yes

Units are S.I. units (second, meters, Newtons, ...)
If the header above contains a line with 'inDegrees', this indicates whether rotational values are in degrees (yes) or radians (no).

endheader
time	pelvis_tilt	pelvis_list	pelvis_rotation	pelvis_tx	pelvis_ty	pelvis_tz	hip_flexion_r	hip_adduction_r	hip_rotation_r	knee_angle_r	knee_angle_r_beta	ankle_angle_r	subtalar_angle_r	mtp_angle_r	hip_flexion_l	hip_adduction_l	hip_rotation_l	knee_angle_l	knee_angle_l_beta	ankle_angle_l	subtalar_angle_l	mtp_angle_l	lumbar_extension	lumbar_bending	lumbar_rotation	arm_flex_r	arm_add_r	arm_rot_r	elbow_flex_r	pro_sup_r	wrist_flex_r	wrist_dev_r	arm_flex_l	arm_add_l	arm_rot_l	elbow_flex_l	pro_sup_l	wrist_flex_l	wrist_dev_l
      9.50000000000000000000	     12.13884399358371268818	      6.34224221234743890108	   -178.49482119031276283749	      0.35981613556685793087	      0.80326830467987275775	     -0.91070735024670990132	     55.96582809270159941661	    -42.00973467741148681398	    -30.71652437358933696032	     58.52899665203669599123	      1.02152369946677823442	     -9.91850483741350608113	      0.00000000000000000000	      0.00000000000000000000	     68.62842738102814621470	    -39.22552872376943611243	     -1.59984039033145220010	     61.49219373410962674598	      1.07324124493443950890	      0.08781988067183787994	      0.00000000000000000000	      0.00000000000000000000	    -63.48116507594949098348	      8.05327425191944890059	      7.61818035023207507095	     55.84549444205537582775	    -12.59347884096521674735	     12.49869401440260219260	     20.36134172980707646161	     86.27928517925785456555	      0.00000000000000000000	      0.00000000000000000000	     53.98288982369176380871	     -0.67877041741785371087	      9.14562301141540778815	     20.66129483383600273783	     86.60542345834991806441	      0.00000000000000000000	      0.00000000000000000000
      9.50500000000000078160	     12.24573944676826364741	      6.30446013797430016012	   -178.57393247969898197880	      0.36006960368218049462	      0.80378334158145725574	     -0.91083751608967844504	     56.10212078693464121670	    -41.88945555221962990800	    -30.57054991707810387425	     58.38233853572162956880	      1.01896403246230748962	    -10.09013723424251374183	      0.00000000000000000000	      0.00000000000000000000	     68.57197697861937513153	    -39.24305324104506098593	     -1.74755946264547956659	     61.34264837729797648080	      1.07063118607700658025	     -0.01902345079108351544	      0.00000000000000000000	      0.00000000000000000000	    -63.29528036717866967820	      7.95594643838001935876	      7.63070261040798314411	     55.68031598784106961375	    -12.69746550257545081308	     12.63750811690980313529	     20.50304583495610444288	     86.21188743394266396081	      0.00000000000000000000	      0.00000000000000000000	     53.94301933830512751911	     -0.68156386929994117185	      9.33229310907742970471	     20.62683649067525948340	     86.59375975615319021017	      0.00000000000000000000	      0.00000000000000000000
      9.50999999999999978684	     12.33328790373263750269	      6.35884358488716205926	   -178.56699727694461898864	      0.36028079070925844718	      0.80428290090430920589	     -0.91085754659051632043	     56.01297660901903441300	    -41.76750446371293179482	    -30.67253638742721477684	     58.19242767579657993338	      1.01564946267132172331	     -9.99441288375722081128	      0.00000000000000000000	      0.00000000000000000000	     68.61843019763473705552	    -39.22719167650167548800	     -1.73177783283112174395	     61.19210966809608720496	      1.06800378994973121927	     -0.12650137144495479657	      0.00000000000000000000	      0.00000000000000000000	    -63.11963124121267298960	      8.01326480033893595589	      7.69150060803434776346	     55.56115489375339677736	    -12.77490741104555205254	     12.76273309758139973269	     20.57347076591312173832	     86.25935140675117906994	      0.00000000000000000000	      0.00000000000000000000	     53.89054934240327554562	     -0.67430809554162740582	      9.42373275036344004718	     20.61245498734285774844	     86.62549146202127303695	      0.00000000000000000000	      0.00000000000000000000
      9.51500000000000056843	     12.42563253607233342279	      6.33794617113671598929	   -178.56417388589230199614	      0.36046905539111084860	      0.80477212527720221047	     -0.91084308826884952115	     56.05578022473154931049	    -41.71694087355947999640	    -30.66169289877323933524	     58.02726295571348202884	      1.01276679449773676644	    -10.14869283801785826427	      0.00000000000000000000	      0.00000000000000000000	     68.60147596175099238280	    -39.18902930647210780535	     -1.83607579758097227973	     61.05639912993431295263	      1.06563519422915486956	     -0.19611694209396871025	      0.00000000000000000000	      0.00000000000000000000	    -62.91978364317166239061	      8.01762433106825156415	      7.68396265177403137159	     55.45438661974401384214	    -12.78351327995194530729	     12.61584158540863676023	     20.55918225714670199977	     86.30698327323298713054	      0.00000000000000000000	      0.00000000000000000000	     53.82683292262844787501	     -0.66856234141967507689	      9.61064282276933745663	     20.59726358052915529129	     86.60361104523381925446	      0.00000000000000000000	      0.00000000000000000000
      9.51999999999999957367	     12.44069163058997062876	      6.29338453524394925154	   -178.56976429052326693636	      0.36057541207706839126	      0.80542763373072645550	     -0.91096203419954513425	     56.05409597381440534036	    -41.67359834596106082927	    -30.62294331533805902268	     57.92925720807670586510	      1.01105627151559640531	    -10.22594693905029927805	      0.00000000000000000000	      0.00000000000000000000	     68.46967834681379372341	    -39.17739358113600189881	     -2.00510896455401699257	     60.90379534054108034979	      1.06297175565322299384	     -0.31103359874670560847	      0.00000000000000000000	      0.00000000000000000000	    -62.81394742839774636423	      7.98506175981969512634	      7.64159998771268078599	     55.35078095370977280254	    -12.76567420557021215188	     12.56420140366076765304	     20.58994920966499009296	     86.29525418717850016037	      0.00000000000000000000	      0.00000000000000000000	     53.78687902497810569002	     -0.73035371244832536508	      9.94125262447026969426	     20.56950522270885173270	     86.58408747469465538416	      0.00000000000000000000	      0.00000000000000000000
      9.52500000000000035527	     12.49099906477291277440	      6.28368904114802440120	   -178.52621910908266045226	      0.36073579062857169530	      0.80600792254277109361	     -0.91091216314440015545	     55.97225029668918949710	    -41.65410279670061299839	    -30.71223259615176814918	     57.76590274923746193281	      1.00820519836103805744	    -10.21929982055581476175	      0.00000000000000000000	      0.00000000000000000000	     68.42721498622810827328	    -39.06738336438030501085	     -1.98774657204454241466	     60.75707327331194562703	      1.06041097249474214337	     -0.41970131629079537872	      0.00000000000000000000	      0.00000000000000000000	    -62.66999086682570663243	      8.03363080591282141540	      7.60182813995634543147	     55.29381392633918324009	    -12.74980527178555966827	     12.54943272364438122679	     20.55625991309597822010	     86.36044027180163595858	      0.00000000000000000000	      0.00000000000000000000	     53.70968725846062596929	     -0.71915625393839166524	      9.90125391871213622608	     20.54289674037757151837	     86.59060757001719821346	      0.00000000000000000000	      0.00000000000000000000
      9.52999999999999936051	     12.44076546393637983101	      6.18334983870004339934	   -178.56170823089419741336	      0.36073344781024130334	      0.80694036599584240133	     -0.91102657259378383436	     55.91988466531844181873	    -41.61029242858626986390	    -30.61676427607656236773	     57.61109947270063713631	      1.00550337149259516600	    -10.32804032587385378861	      0.00000000000000000000	      0.00000000000000000000	     68.11772234079123222728	    -39.04436928785807481290	     -2.22071191059639971854	     60.58521069565894379139	      1.05741140465373284485	     -0.44540436913815006914	      0.00000000000000000000	      0.00000000000000000000	    -62.63519938146271925916	      7.92732987562434132656	      7.51687090936160551280	     55.21935455720187491124	    -12.72180980371104297433	     12.59092707655516996113	     20.55258275535331691231	     86.29753075398880923785	      0.00000000000000000000	      0.00000000000000000000	     53.67650964837043403577	     -0.79971845359901116979	     10.25739518410572870266	     20.54556499382213630156	     86.58888213980372938749	      0.00000000000000000000	      0.00000000000000000000
      9.53500000000000014211	     12.40323135764503348355	      6.07624091402601784750	   -178.60476970562856990909	      0.36069571853771981162	      0.80783528101888391060	     -0.91117188498084888959	     55.86359321984956949336	    -41.56347453615719444997	    -30.51476052282916029412	     57.44963842775266726903	      1.00268534464454250887	    -10.34839488365665793879	      0.00000000000000000000	      0.00000000000000000000	     67.81131838544288825688	    -39.02346190155058280880	     -2.47070260105515027149	     60.40674030026673335669	      1.05429650863680257622	     -0.49591363397271404079	      0.00000000000000000000	      0.00000000000000000000	    -62.58299231326078171378	      7.81135235278560280392	      7.43316250021123270386	     55.12660884206953681996	    -12.67453404731939414773	     12.51767225889960144514	     20.54429816516590179276	     86.17925330115681958887	      0.00000000000000000000	      0.00000000000000000000	     53.62167709456232245202	     -0.90332887797566263632	     10.60701300562633697666	     20.58501367194718056908	     86.55850040961722413613	      0.00000000000000000000	      0.00000000000000000000
      9.53999999999999914735	     12.43783476253872066764	      6.05235030025120579467	   -178.56379222654027216777	      0.36076918306321326124	      0.80840089237464807237	     -0.91109084023791164775	     55.77887087277213140624	    -41.58550974110397646655	    -30.60947926311186151338	     57.34438318315783789103	      1.00084829407137076984	    -10.33493868654218417191	      0.00000000000000000000	      0.00000000000000000000	     67.78183806586459070331	    -38.90993777950651377751	     -2.44458929904335864336	     60.33310639609581471632	      1.05301135456792205325	     -0.55872712007202218754	      0.00000000000000000000	      0.00000000000000000000	    -62.42955454400120629543	      7.83549938952399660508	      7.36691136306862137673	     55.03175755696808124640	    -12.66289366077324807236	     12.51291206133609001938	     20.50795932403114818499	     86.18907924877022708188	      0.00000000000000000000	      0.00000000000000000000	     53.53834237060451073376	     -0.90248791835533226369	     10.61120449990389325023	     20.55112858442521073243	     86.55946298675227978947	      0.00000000000000000000	      0.00000000000000000000
      9.54499999999999992895	     12.48100002120386697868	      6.10638106127968338654	   -178.51756964997963450514	      0.36085937391380062955	      0.80910932797332379973	     -0.91097463923667854058	     55.59451444652047058526	    -41.46573854633086142485	    -30.72022768352184129981	     57.09483035258278960100	      0.99649277552016468640	    -10.24946241123679513407	      0.00000000000000000000	      0.00000000000000000000	     67.76306460392218866673	    -38.82219816211173935017	     -2.35456990067927174337	     60.14567230539783793120	      1.04974001255476068195	     -0.68021699722496264950	      0.00000000000000000000	      0.00000000000000000000	    -62.29772168707842183721	      7.93155314690338020256	      7.32876383703642986234	     54.97351411504247664652	    -12.63770342441342364737	     12.70572404279420908324	     20.48489889713314227038	     86.32782938377498282989	      0.00000000000000000000	      0.00000000000000000000	     53.41926159696802756116	     -0.98128932218160225265	     10.64020822225377393977	     20.64239005628851231222	     86.68295094990800464529	      0.00000000000000000000	      0.00000000000000000000
